<?xml version="1.0" encoding="UTF-8"?>
<svg width="30px" height="46px" viewBox="0 0 30 46" version="1.1" xmlns="http://www.w3.org/2000/svg" xmlns:xlink="http://www.w3.org/1999/xlink">
    <!-- Generator: Sketch 50.2 (55047) - http://www.bohemiancoding.com/sketch -->
    <title>scroll</title>
    <desc>Created with Sketch.</desc>
    <defs></defs>
    <g id="Page-1" stroke="none" stroke-width="1" fill="none" fill-rule="evenodd">
        <g id="index-ver4-animatic-slide1-full" transform="translate(-944.000000, -717.000000)" fill="#FFFFFF" fill-rule="nonzero">
            <g id="header" transform="translate(319.000000, -1.000000)">
                <g id="scroll" transform="translate(625.000000, 718.000000)">
                    <path d="M15,0 C6.72575887,0.0241649367 0.0241649367,6.72575887 0,15 L0,31 C1.01453063e-15,39.2842712 6.71572875,46 15,46 C23.2842712,46 30,39.2842712 30,31 L30,15 C29.9758351,6.72575887 23.2742411,0.0241649367 15,0 Z M28,31 C28,38.1797017 22.1797017,44 15,44 C7.82029825,44 2,38.1797017 2,31 L2,15 C2,7.82029825 7.82029825,2 15,2 C22.1797017,2 28,7.82029825 28,15 L28,31 Z" id="Shape"></path>
                    <path d="M15,8 C14.7330505,7.99420967 14.4753184,8.09770605 14.2865122,8.28651224 C14.097706,8.47531843 13.9942097,8.73305052 14,9 L14,15 C14,15.5522847 14.4477153,16 15,16 C15.5522847,16 16,15.5522847 16,15 L16,9 C16.0057903,8.73305052 15.902294,8.47531843 15.7134878,8.28651224 C15.5246816,8.09770605 15.2669495,7.99420967 15,8 Z" id="Shape"></path>
                    <path d="M15,8 C14.7330505,7.99420967 14.4753184,8.09770605 14.2865122,8.28651224 C14.097706,8.47531843 13.9942097,8.73305052 14,9 L14,15 C14,15.5522847 14.4477153,16 15,16 C15.5522847,16 16,15.5522847 16,15 L16,9 C16.0057903,8.73305052 15.902294,8.47531843 15.7134878,8.28651224 C15.5246816,8.09770605 15.2669495,7.99420967 15,8 Z" id="Shape"></path>
                </g>
            </g>
        </g>
    </g>
</svg>